<mxfile host="app.diagrams.net" modified="2023-09-23T17:53:40.224Z" agent="Mozilla/5.0 (X11; Ubuntu; Linux x86_64; rv:109.0) Gecko/20100101 Firefox/117.0" etag="jki0pgln8Zad23jJ5PpO" version="21.7.5" type="device">
  <diagram name="Página-1" id="zjyK9hXY3o5KPYyuhCNa">
    <mxGraphModel dx="1284" dy="544" grid="1" gridSize="10" guides="1" tooltips="1" connect="1" arrows="1" fold="1" page="1" pageScale="1" pageWidth="850" pageHeight="1100" math="0" shadow="0">
      <root>
        <mxCell id="0" />
        <mxCell id="1" parent="0" />
        <mxCell id="iqeuYDC7KMSOVShGFnWL-3" style="edgeStyle=orthogonalEdgeStyle;rounded=0;orthogonalLoop=1;jettySize=auto;html=1;" edge="1" parent="1" source="iqeuYDC7KMSOVShGFnWL-1" target="iqeuYDC7KMSOVShGFnWL-2">
          <mxGeometry relative="1" as="geometry" />
        </mxCell>
        <mxCell id="iqeuYDC7KMSOVShGFnWL-1" value="Aplicação WEB" style="rounded=0;whiteSpace=wrap;html=1;" vertex="1" parent="1">
          <mxGeometry x="120" y="270" width="180" height="60" as="geometry" />
        </mxCell>
        <mxCell id="iqeuYDC7KMSOVShGFnWL-9" style="edgeStyle=orthogonalEdgeStyle;rounded=0;orthogonalLoop=1;jettySize=auto;html=1;" edge="1" parent="1" source="iqeuYDC7KMSOVShGFnWL-2" target="iqeuYDC7KMSOVShGFnWL-8">
          <mxGeometry relative="1" as="geometry" />
        </mxCell>
        <mxCell id="iqeuYDC7KMSOVShGFnWL-15" style="edgeStyle=orthogonalEdgeStyle;rounded=0;orthogonalLoop=1;jettySize=auto;html=1;entryX=0;entryY=0.5;entryDx=0;entryDy=0;" edge="1" parent="1" source="iqeuYDC7KMSOVShGFnWL-2" target="iqeuYDC7KMSOVShGFnWL-14">
          <mxGeometry relative="1" as="geometry" />
        </mxCell>
        <mxCell id="iqeuYDC7KMSOVShGFnWL-2" value="View" style="rounded=0;whiteSpace=wrap;html=1;" vertex="1" parent="1">
          <mxGeometry x="460" y="270" width="180" height="60" as="geometry" />
        </mxCell>
        <mxCell id="iqeuYDC7KMSOVShGFnWL-12" style="edgeStyle=orthogonalEdgeStyle;rounded=0;orthogonalLoop=1;jettySize=auto;html=1;entryX=0.5;entryY=1;entryDx=0;entryDy=0;" edge="1" parent="1" source="iqeuYDC7KMSOVShGFnWL-8" target="iqeuYDC7KMSOVShGFnWL-11">
          <mxGeometry relative="1" as="geometry" />
        </mxCell>
        <mxCell id="iqeuYDC7KMSOVShGFnWL-16" style="edgeStyle=orthogonalEdgeStyle;rounded=0;orthogonalLoop=1;jettySize=auto;html=1;entryX=1;entryY=0.5;entryDx=0;entryDy=0;" edge="1" parent="1" source="iqeuYDC7KMSOVShGFnWL-8" target="iqeuYDC7KMSOVShGFnWL-14">
          <mxGeometry relative="1" as="geometry" />
        </mxCell>
        <mxCell id="iqeuYDC7KMSOVShGFnWL-18" style="edgeStyle=orthogonalEdgeStyle;rounded=0;orthogonalLoop=1;jettySize=auto;html=1;" edge="1" parent="1" source="iqeuYDC7KMSOVShGFnWL-8" target="iqeuYDC7KMSOVShGFnWL-2">
          <mxGeometry relative="1" as="geometry" />
        </mxCell>
        <mxCell id="iqeuYDC7KMSOVShGFnWL-8" value="Services" style="rounded=0;whiteSpace=wrap;html=1;" vertex="1" parent="1">
          <mxGeometry x="750" y="270" width="180" height="60" as="geometry" />
        </mxCell>
        <mxCell id="iqeuYDC7KMSOVShGFnWL-11" value="Banco de Dados" style="rounded=0;whiteSpace=wrap;html=1;" vertex="1" parent="1">
          <mxGeometry x="750" y="160" width="180" height="60" as="geometry" />
        </mxCell>
        <mxCell id="iqeuYDC7KMSOVShGFnWL-14" value="Model" style="rounded=0;whiteSpace=wrap;html=1;" vertex="1" parent="1">
          <mxGeometry x="610" y="450" width="180" height="60" as="geometry" />
        </mxCell>
      </root>
    </mxGraphModel>
  </diagram>
</mxfile>
